# xmcd
#
# Track frame offsets:
#	150
#	6480
#	47413
#	74151
#	89851
#	105008
#	114335
#	116670
#	122634
#	130300
#	138806
#	150597
#	152741
#	158277
#	163634
#	259605
#	267832
#	274273
#	296059
#
# Disc length: 4323 seconds
#
# Revision: 1
# Processed by: cddbd v1.5.2PL0 Copyright (c) Steve Scherf et al.
# Submitted via: EZCDAudioConverter 1.3.4.1
#
DISCID=0510e113
DTITLE=Hunter S. Thompson - The Gonzo Tapes 2/5
DYEAR=2008
DGENRE=Speech
TTITLE0=It's Monday Afternoon, We Have A White Cadillac Convertible
TTITLE1=Did You See The Way That Guy Looked At Us?
TTITLE2=Well, She Was Crazy. It Was Clear When I Came Into The Room That She W
TTITLE2=as Nuts
TTITLE3=Abbe Lane At The Desert Inn. Louis Prima, Stardust
TTITLE4=You Get What You Pay For
TTITLE5=What We Should Do Is Just Call The Free Press
TTITLE6=We Could Certainly Use Some Mescaline
TTITLE7=The White House Says The Guest List For Tricia Nixon And Edward Cox's 
TTITLE7=Wedding In June Is Limited To No More Than 400 People
TTITLE8=Let Me Call Wilcock If I Can And See If I Can Get Us Some Drugs
TTITLE9=Oh Hi, Is Jay There?
TTITLE10=It's Ringing
TTITLE11=If All Else Fails We Must Get Ether
TTITLE12=Remote Control RM15
TTITLE13=Maybe That's Where We've Gone Wrong
TTITLE14=I'm Getting Tired Of Giving You Advice That You're Not Taking
TTITLE15=Can They Rent That With The Option To Buy?
TTITLE16=How Much Is Your Cheapest Clarinet?
TTITLE17=What's This?
TTITLE18=While Taking A Piss There It Suddenly Struck Me What's Going On Here
EXTD=
EXTT0=
EXTT1=
EXTT2=
EXTT3=
EXTT4=
EXTT5=
EXTT6=
EXTT7=
EXTT8=
EXTT9=
EXTT10=
EXTT11=
EXTT12=
EXTT13=
EXTT14=
EXTT15=
EXTT16=
EXTT17=
EXTT18=
PLAYORDER=
